<svg width="60" height="60" viewBox="0 0 60 60" fill="none" xmlns="http://www.w3.org/2000/svg">
<g clip-path="url(#clip0_153_2)">
<path d="M8.21875 29.9688C8.21875 28.2188 11.7917 23.5417 18.9375 15.9375C14.3542 15.6667 12.0625 15.2083 12.0625 14.5625V14.2812C12.0625 13.2396 16.0104 12.1458 23.9062 11V10.7188C24.0521 6.32292 24.5104 4.125 25.2812 4.125H26.0938C29.2188 4.125 30.7812 4.85417 30.7812 6.3125V10.4375C30.9479 10.4375 31.0312 10.3438 31.0312 10.1562C33.0312 10.0729 34.7604 10.0104 36.2188 9.96875C37.6771 9.92708 38.8854 9.90625 39.8438 9.90625H42.5938C44.4271 10.1562 45.3438 10.9792 45.3438 12.375C44.4062 12.8333 42.9062 13.2917 40.8438 13.75C38.8021 14.2083 36.1771 14.6667 32.9688 15.125V15.4062C45.0729 20.6979 51.125 24.6354 51.125 27.2188C50.75 28.3229 49.7396 28.875 48.0938 28.875C43.3021 28.875 37.4375 24.75 30.5 16.5C29.9583 23.1042 28.4896 26.4062 26.0938 26.4062H25.5312C24.7396 26.4062 24.1979 22.9167 23.9062 15.9375H20.3125L22.25 17.875V18.6875C22.25 21.3542 17.8438 25.2083 9.03125 30.25H8.21875V29.9688ZM26.0938 39.0312C26.0938 38.6771 25.4479 37.8542 24.1562 36.5625V36.0312C25.5312 35.6562 26.4479 35.4688 26.9062 35.4688C30.0312 35.4688 31.5938 36.4792 31.5938 38.5C36.6979 38.125 41.375 37.9375 45.625 37.9375H48.375C48.6458 37.9375 48.9167 38.2188 49.1875 38.7812C49.1875 40.7812 45.1562 41.7812 37.0938 41.7812C36.6562 41.7812 35.2812 41.875 32.9688 42.0625V44.8125C32.3646 52.3125 30.4375 56.4375 27.1875 57.1875H26.6562C23.6562 57.1875 21.2708 56.1771 19.5 54.1562V53.625C19.5 53.3333 21.2396 52.5104 24.7188 51.1562C26.3646 50.0938 27.1875 47.6146 27.1875 43.7188V42.625C27.1875 42.25 27.0104 42.0625 26.6562 42.0625H18.9375C17.75 42.0625 16.5625 42.0208 15.375 41.9375C14.2083 41.8333 13.0104 41.6979 11.7812 41.5312V41.25C11.7812 40.375 16.5521 39.6354 26.0938 39.0312ZM23.625 27C26.0833 26.7708 28.4688 26.6562 30.7812 26.6562H32.9688C32.9688 26.1146 33.4271 25.5729 34.3438 25.0312H34.625C35.1042 25.0521 36.1979 26.0521 37.9062 28.0312C37.9062 29.8021 36.1667 31.5521 32.6875 33.2812H31.5938C31.3438 33.2812 31.0729 33 30.7812 32.4375V32.1562L31.0312 30.25C28.8021 30.5208 26.8854 30.7292 25.2812 30.875C23.6979 31 22.4062 31.0625 21.4062 31.0625C17.7396 31.0625 15.9062 30.0521 15.9062 28.0312C18.5729 27.5729 21.1458 27.2292 23.625 27Z" fill="black" style="mix-blend-mode:exclusion"/>
</g>
<defs>
<clipPath id="clip0_153_2">
<rect width="60" height="60" fill="white"/>
</clipPath>
</defs>
</svg>
