<svg width="160" height="113" viewBox="0 0 160 113" fill="none" xmlns="http://www.w3.org/2000/svg">
<path d="M15.9833 113L37.6078 75.3922C27.2657 75.3922 18.4122 71.7098 11.0473 64.3449C3.68243 56.98 0 48.1265 0 37.7844C0 27.4422 3.68243 18.5887 11.0473 11.2238C18.4122 3.85895 27.2657 0.176514 37.6078 0.176514C47.95 0.176514 56.8035 3.85895 64.1684 11.2238C71.5332 18.5887 75.2157 27.4422 75.2157 37.7844C75.2157 41.3884 74.7848 44.7183 73.9229 47.7739C73.0611 50.8296 71.7683 53.7677 70.0446 56.5883L37.6078 113H15.9833ZM100.601 113L122.225 75.3922C111.883 75.3922 103.03 71.7098 95.6649 64.3449C88.3001 56.98 84.6176 48.1265 84.6176 37.7844C84.6176 27.4422 88.3001 18.5887 95.6649 11.2238C103.03 3.85895 111.883 0.176514 122.225 0.176514C132.568 0.176514 141.421 3.85895 148.786 11.2238C156.151 18.5887 159.833 27.4422 159.833 37.7844C159.833 41.3884 159.402 44.7183 158.541 47.7739C157.679 50.8296 156.386 53.7677 154.662 56.5883L122.225 113H100.601Z" fill="#F7F7F7"/>
</svg>
