<svg width="24" height="24" viewBox="0 0 24 24" fill="none" xmlns="http://www.w3.org/2000/svg">
<mask id="mask0_121_16" style="mask-type:alpha" maskUnits="userSpaceOnUse" x="0" y="0" width="24" height="24">
<rect width="24" height="24" fill="#D9D9D9"/>
</mask>
<g mask="url(#mask0_121_16)">
<path d="M17.1539 16.3077C16.0436 16.3077 15.0942 15.9574 14.3058 15.2567C13.5173 14.5561 13.0385 13.6372 12.8692 12.5H6.68463C6.57436 12.95 6.33974 13.3317 5.98078 13.6452C5.62179 13.9587 5.17949 14.1154 4.65385 14.1154C4.06924 14.1154 3.57052 13.909 3.1577 13.4962C2.74487 13.0833 2.53845 12.5846 2.53845 12C2.53845 11.4154 2.74487 10.9167 3.1577 10.5039C3.57052 10.091 4.06924 9.88463 4.65385 9.88463C5.17949 9.88463 5.62179 10.0414 5.98078 10.3548C6.33974 10.6683 6.57436 11.05 6.68463 11.5H12.8692C13.0385 10.3628 13.5173 9.44391 14.3058 8.74328C15.0942 8.04263 16.0436 7.69231 17.1539 7.69231C18.3449 7.69231 19.3606 8.11891 20.201 8.97213C21.0414 9.82533 21.4616 10.8474 21.4616 12.0385C21.4616 13.2039 21.0414 14.2067 20.201 15.0471C19.3606 15.8875 18.3449 16.3077 17.1539 16.3077ZM17.1539 15.3077C18.0641 15.3077 18.8429 14.984 19.4904 14.3365C20.1378 13.6891 20.4615 12.9103 20.4615 12C20.4615 11.0898 20.1378 10.3109 19.4904 9.66348C18.8429 9.01603 18.0641 8.69231 17.1539 8.69231C16.2436 8.69231 15.4647 9.01603 14.8173 9.66348C14.1699 10.3109 13.8462 11.0898 13.8462 12C13.8462 12.9103 14.1699 13.6891 14.8173 14.3365C15.4647 14.984 16.2436 15.3077 17.1539 15.3077Z" fill="#1C1B1F"/>
</g>
</svg>
